# xmcd
#
# Track frame offsets:
#  150
#  20115
#  37845
#  60288
#  87867
#  110188
#  131906
#  163230
#  185070
#  212345
#  235451
#  258557
#  278705
#  297826
#
# Disc length: 4352 seconds
#
# Revision: 0
# Processed by: cddbd v1.4PL0 Copyright (c) Steve Scherf et al.
# Submitted via: AltoMP3_Maker 3.0
#
DISCID=d110fe0e
DTITLE=Various Artist - Dance Trendz
DYEAR=1900
DGENRE=
TTITLE0=Qayamat Hoon Mai
TTITLE1=Khabhi Nahi
TTITLE2=Hone De Hone De
TTITLE3=Sanjana I Love You
TTITLE4=Pari Pari
TTITLE5=Rabba Rabba
TTITLE6=Yeh Kaha
TTITLE7=Ankhiya Udeek Diya
TTITLE8=Kasam Ki Kasam
TTITLE9=Kaanta Laga
TTITLE10=Kisise Tum Pyaar
TTITLE11=Suno Na Suno Na
TTITLE12=Lift Karade
TTITLE13=Wo Larki Bahut
EXTD=
EXTT0=
EXTT1=
EXTT2=
EXTT3=
EXTT4=
EXTT5=
EXTT6=
EXTT7=
EXTT8=
EXTT9=
EXTT10=
EXTT11=
EXTT12=
EXTT13=
PLAYORDER=
